<?xml version="1.0" standalone="no"?>
<!DOCTYPE svg PUBLIC "-//W3C//DTD SVG 20010904//EN"
 "http://www.w3.org/TR/2001/REC-SVG-20010904/DTD/svg10.dtd">
<svg version="1.0" xmlns="http://www.w3.org/2000/svg"
 width="25.000000pt" height="25.000000pt" viewBox="0 0 25.000000 25.000000"
 preserveAspectRatio="xMidYMid meet">

<g transform="translate(0.000000,25.000000) scale(0.100000,-0.100000)"
fill="#000000" stroke="none">
<path d="M10 202 c0 -5 16 -22 36 -37 l35 -27 -20 -22 c-11 -11 -23 -34 -27
-50 -7 -28 -6 -29 22 -22 16 4 38 16 50 27 26 24 29 24 68 -6 49 -37 57 -30
11 10 -32 27 -37 37 -28 46 10 10 8 18 -9 36 -20 22 -23 22 -40 6 -17 -15 -20
-15 -41 3 -41 36 -57 47 -57 36z m56 -139 c-10 -10 -19 5 -10 18 6 11 8 11 12
0 2 -7 1 -15 -2 -18z"/>
<path d="M145 200 c-4 -7 2 -22 14 -33 16 -17 23 -19 33 -9 9 9 10 17 2 30
-14 21 -40 27 -49 12z"/>
</g>
</svg>
